<?xml version="1.0"?>
<svg xmlns="http://www.w3.org/2000/svg" xmlns:xlink="http://www.w3.org/1999/xlink" xmlns:svgjs="http://svgjs.com/svgjs" version="1.1" width="512" height="512" x="0" y="0" viewBox="0 0 512 512" style="enable-background:new 0 0 512 512" xml:space="preserve" class=""><g><g xmlns="http://www.w3.org/2000/svg"><path d="m481 180h-90v302h-30v-182h-90v182h-30v-242h-90v242h-30v-152h-90v152h-31v30h512v-30h-31zm-60 30h30v272h-30zm-120 120h30v152h-30zm-120-60h30v212h-30zm-120 90h30v122h-30z" fill="#ffffff" data-original="#000000" style="" class=""/><path d="m391 30h69.645l-144.616 143.816-120-120-191.606 190.548 21.154 21.272 170.394-169.452 120 120 166.029-165.112v68.928h30v-120h-121z" fill="#ffffff" data-original="#000000" style="" class=""/></g></g></svg>
